<svg width="122" height="138" viewBox="0 0 122 138" fill="none" xmlns="http://www.w3.org/2000/svg">
<path d="M38.5891 63.4239L70.3209 59.8634C83.09 57.3596 114.208 52.1517 105.303 26.3164C100.446 18.1128 86.6215 6.20353 70.1806 24.1947C67.2649 28.0673 61.1103 38.1874 59.817 47.6869C56.297 44.0719 49.9482 26.043 61.4792 12.6414C68.5497 4.4239 87.5869 -8.14163 107.172 7.33591C117.889 15.0765 133.037 37.159 107.896 63.5637C100.913 70.8983 82.6172 71.8017 70.6637 73.5595C50.6964 76.4957 13.9411 78.4676 14.1198 98.4519C14.2143 109.603 20.0535 129.789 44.7462 119.741C49.9947 117.605 63.8151 107 63.7473 89.5228C70.8914 111.441 60.9953 127.62 53.8855 131.695C27.3424 146.909 8.93204 126.911 3.47886 115.677C-10.5111 79.7142 21.0565 65.8571 38.5891 63.4239Z" fill="white"/>
</svg>
