<svg width="531" height="138" viewBox="0 0 531 138" fill="none" xmlns="http://www.w3.org/2000/svg">
<path d="M226.474 59.4381H212.565C212.504 56.4078 211.944 53.7412 210.883 51.4381C209.823 49.1048 208.368 47.1503 206.52 45.5745C204.701 43.9684 202.565 42.7563 200.111 41.9381C197.656 41.12 195.004 40.7109 192.156 40.7109C186.671 40.7109 181.52 42.1048 176.701 44.8927C171.883 47.6806 167.777 51.7412 164.383 57.0745C160.989 62.4078 158.656 68.9078 157.383 76.5745C156.141 84.0291 156.292 90.2866 157.838 95.3472C159.383 100.408 161.989 104.241 165.656 106.847C169.353 109.423 173.792 110.711 178.974 110.711C182.004 110.711 184.959 110.317 187.838 109.529C190.747 108.711 193.444 107.514 195.929 105.938C198.414 104.362 200.611 102.438 202.52 100.165C204.459 97.8624 205.974 95.226 207.065 92.2563H221.156C219.641 96.8624 217.504 101.075 214.747 104.893C211.989 108.711 208.732 112.014 204.974 114.802C201.217 117.59 197.095 119.741 192.611 121.256C188.126 122.771 183.383 123.529 178.383 123.529C170.171 123.529 163.171 121.575 157.383 117.665C151.626 113.726 147.489 108.12 144.974 100.847C142.489 93.5745 142.065 84.9078 143.701 74.8472C145.368 65.0594 148.55 56.6654 153.247 49.6654C157.974 42.6351 163.732 37.2563 170.52 33.5291C177.338 29.7715 184.701 27.8927 192.611 27.8927C197.611 27.8927 202.186 28.6048 206.338 30.0291C210.489 31.423 214.065 33.4836 217.065 36.2109C220.095 38.9078 222.429 42.2109 224.065 46.12C225.701 49.9987 226.504 54.4381 226.474 59.4381Z" fill="white"/>
<path d="M280.917 93.3018L287.736 52.4381H301.372L289.736 122.256H276.372L278.417 110.165H277.69C275.508 113.893 272.417 116.999 268.417 119.484C264.448 121.938 259.842 123.165 254.599 123.165C250.114 123.165 246.311 122.181 243.19 120.211C240.099 118.211 237.902 115.256 236.599 111.347C235.296 107.438 235.114 102.605 236.054 96.8472L243.508 52.4381H257.099L249.963 95.2109C249.205 99.9684 249.917 103.756 252.099 106.575C254.281 109.393 257.463 110.802 261.645 110.802C264.19 110.802 266.826 110.165 269.554 108.893C272.281 107.62 274.69 105.696 276.781 103.12C278.902 100.544 280.281 97.2715 280.917 93.3018Z" fill="white"/>
<path d="M352.224 52.4381L350.451 63.3472H312.315L314.088 52.4381H352.224ZM327.042 35.7109H340.633L329.633 101.756C329.209 104.393 329.285 106.378 329.861 107.711C330.436 109.014 331.315 109.908 332.497 110.393C333.709 110.847 335.058 111.075 336.542 111.075C337.633 111.075 338.588 110.999 339.406 110.847C340.224 110.696 340.876 110.575 341.361 110.484L342.088 121.711C341.179 122.014 339.951 122.317 338.406 122.62C336.891 122.953 335.042 123.135 332.861 123.165C329.285 123.226 326.057 122.59 323.179 121.256C320.3 119.893 318.148 117.832 316.724 115.075C315.3 112.287 314.951 108.787 315.679 104.575L327.042 35.7109Z" fill="white"/>
<path d="M445.167 76.62C443.531 86.4078 440.349 94.8018 435.622 101.802C430.925 108.802 425.167 114.181 418.349 117.938C411.561 121.665 404.228 123.529 396.349 123.529C388.137 123.529 381.122 121.575 375.304 117.665C369.516 113.726 365.364 108.135 362.849 100.893C360.334 93.62 359.91 84.9533 361.576 74.8927C363.213 65.1048 366.379 56.7109 371.076 49.7109C375.804 42.6806 381.576 37.2866 388.395 33.5291C395.243 29.7715 402.637 27.8927 410.576 27.8927C418.728 27.8927 425.683 29.8624 431.44 33.8018C437.228 37.7109 441.379 43.3169 443.895 50.62C446.41 57.8927 446.834 66.5594 445.167 76.62ZM431.486 74.8927C432.728 67.4685 432.576 61.226 431.031 56.1654C429.516 51.0745 426.925 47.226 423.258 44.62C419.592 42.0139 415.167 40.7109 409.986 40.7109C404.47 40.7109 399.304 42.1048 394.486 44.8927C389.698 47.6806 385.607 51.7412 382.213 57.0745C378.819 62.4078 376.501 68.923 375.258 76.62C373.986 84.0442 374.122 90.2866 375.667 95.3472C377.213 100.408 379.819 104.241 383.486 106.847C387.183 109.423 391.622 110.711 396.804 110.711C402.289 110.711 407.425 109.332 412.213 106.575C417.031 103.787 421.137 99.7412 424.531 94.4381C427.925 89.1048 430.243 82.5897 431.486 74.8927Z" fill="white"/>
<path d="M517.133 54.1654C517.164 49.5897 515.679 46.0897 512.679 43.6654C509.709 41.2412 505.558 40.0291 500.224 40.0291C496.406 40.0291 492.997 40.6351 489.997 41.8472C487.027 43.029 484.603 44.6654 482.724 46.7563C480.876 48.8169 479.739 51.1654 479.315 53.8018C478.921 56.0139 479.118 57.923 479.906 59.529C480.724 61.1351 481.891 62.4836 483.406 63.5745C484.951 64.6351 486.648 65.5291 488.497 66.2563C490.345 66.9533 492.133 67.5291 493.861 67.9836L502.588 70.3472C505.406 71.0745 508.27 72.0594 511.179 73.3018C514.088 74.5442 516.709 76.1806 519.042 78.2109C521.376 80.2412 523.118 82.7563 524.27 85.7563C525.421 88.7563 525.648 92.3472 524.951 96.5291C524.042 101.802 521.906 106.484 518.542 110.575C515.179 114.665 510.739 117.893 505.224 120.256C499.709 122.62 493.315 123.802 486.042 123.802C479.073 123.802 473.209 122.696 468.451 120.484C463.724 118.271 460.254 115.135 458.042 111.075C455.83 106.984 455.042 102.135 455.679 96.5291H469.815C469.482 99.8927 470.088 102.696 471.633 104.938C473.209 107.15 475.421 108.802 478.27 109.893C481.118 110.953 484.345 111.484 487.951 111.484C491.951 111.484 495.603 110.862 498.906 109.62C502.209 108.347 504.936 106.59 507.088 104.347C509.239 102.075 510.558 99.423 511.042 96.3927C511.527 93.6351 511.133 91.3775 509.861 89.62C508.618 87.8624 506.739 86.4078 504.224 85.2563C501.739 84.1048 498.906 83.0897 495.724 82.2109L485.224 79.2109C478.103 77.1806 472.709 74.1957 469.042 70.2563C465.376 66.3169 464.057 61.1048 465.088 54.62C465.997 49.2563 468.239 44.5745 471.815 40.5745C475.391 36.5745 479.845 33.4684 485.179 31.2563C490.512 29.0139 496.3 27.8927 502.542 27.8927C508.845 27.8927 514.209 29.0139 518.633 31.2563C523.057 33.4987 526.33 36.5897 528.451 40.5291C530.573 44.4684 531.315 49.0139 530.679 54.1654H517.133Z" fill="white"/>
<path d="M38.5891 63.4239L70.3209 59.8634C83.09 57.3596 114.208 52.1517 105.303 26.3163C100.446 18.1128 86.6215 6.20351 70.1806 24.1947C67.2649 28.0673 61.1103 38.1874 59.817 47.6869C56.297 44.0719 49.9482 26.043 61.4792 12.6413C68.5497 4.42387 87.5869 -8.14166 107.172 7.33589C117.889 15.0765 133.037 37.1589 107.896 63.5637C100.913 70.8983 82.6172 71.8017 70.6637 73.5594C50.6964 76.4957 13.9411 78.4675 14.1198 98.4519C14.2143 109.603 20.0535 129.789 44.7462 119.741C49.9947 117.605 63.8151 107 63.7473 89.5228C70.8914 111.441 60.9953 127.62 53.8855 131.695C27.3424 146.909 8.93204 126.911 3.47887 115.677C-10.5111 79.7142 21.0565 65.8571 38.5891 63.4239Z" fill="white"/>
</svg>
